<svg xmlns="http://www.w3.org/2000/svg" xmlns:xlink="http://www.w3.org/1999/xlink" viewBox="0 0 309.56 143"><defs><style>.cls-1{fill:url(#linear-gradient);}.cls-2{fill:#fff;}</style><linearGradient id="linear-gradient" x1="154.78" y1="143" x2="154.78" gradientUnits="userSpaceOnUse"><stop offset="0" stop-color="#fff"/><stop offset="0.22" stop-color="#fbfbfb"/><stop offset="0.45" stop-color="#eee"/><stop offset="0.68" stop-color="#d9d9d9"/><stop offset="0.92" stop-color="#bcbcbc"/><stop offset="1" stop-color="#b0b0b0"/></linearGradient></defs><title>shiv</title><g id="Layer_2" data-name="Layer 2"><g id="Layer_2-2" data-name="Layer 2"><path class="cls-1" d="M154.78,0h0a55,55,0,0,1,55,55v88a0,0,0,0,1,0,0h-110a0,0,0,0,1,0,0V55A55,55,0,0,1,154.78,0Z"/><path d="M122.78,40.75q10.4.34,20.79.56c11.31.25,22.63.51,33.94.24,2.1,0,4.19-.12,6.28-.29a10.14,10.14,0,0,0,3.37-.61c.87-.42.11-1.71-.76-1.3.12-.05-.09,0-.25.08l-.65.13c-.5.09-1,.14-1.59.19-1.76.15-3.52.21-5.29.27-5.16.15-10.33.14-15.5.1-11-.08-22-.33-32.94-.65l-7.4-.22a.75.75,0,0,0,0,1.5Z"/><path d="M122.34,58.86q10.4.35,20.79.56c11.31.25,22.64.51,33.94.24,2.1,0,4.19-.12,6.28-.29a10.1,10.1,0,0,0,3.37-.61c.87-.42.11-1.71-.76-1.3.12-.05-.09,0-.25.08l-.65.13c-.5.09-1,.14-1.59.19-1.76.15-3.52.21-5.29.27-5.16.15-10.33.14-15.49.1-11-.08-22-.33-32.95-.65l-7.4-.22c-1,0-1,1.47,0,1.5Z"/><path d="M122.34,48.86q10.4.35,20.79.56c11.31.25,22.64.51,33.94.24,2.1,0,4.19-.12,6.28-.29a10.1,10.1,0,0,0,3.37-.61c.87-.42.11-1.71-.76-1.3.12-.05-.09,0-.25.08l-.65.13c-.5.09-1,.14-1.59.19-1.76.15-3.52.21-5.29.27-5.16.15-10.33.14-15.49.1-11-.08-22-.33-32.95-.65l-7.4-.22c-1,0-1,1.47,0,1.5Z"/><path class="cls-2" d="M153.78,83c-24.5-20.06-16-30.68,0-67"/><path d="M153.78,83a60.84,60.84,0,0,1-7.48-5.86,35,35,0,0,1-6.16-7.45,22.34,22.34,0,0,1-3.06-9.41,30.29,30.29,0,0,1,.92-9.8,95.81,95.81,0,0,1,7-17.75c2.76-5.67,5.68-11.23,8.79-16.73-2,6-4.31,11.86-6.65,17.68-1.14,2.92-2.36,5.8-3.41,8.72a75.94,75.94,0,0,0-2.81,8.79,28.4,28.4,0,0,0-1,8.88,21.41,21.41,0,0,0,2.28,8.51C144.94,74,149.36,78.53,153.78,83Z"/><path class="cls-2" d="M153.4,83c24.5-20.06,16-30.68,0-67"/><path d="M153.4,83c4.42-4.47,8.84-9,11.59-14.42a21.6,21.6,0,0,0,2.29-8.51,28.71,28.71,0,0,0-1-8.88,75.94,75.94,0,0,0-2.81-8.79c-1.05-2.92-2.27-5.8-3.41-8.72C157.71,27.86,155.37,22,153.4,16c3.11,5.5,6,11.06,8.79,16.73a95.81,95.81,0,0,1,7,17.75,30.29,30.29,0,0,1,.92,9.8A22.34,22.34,0,0,1,167,69.69a35,35,0,0,1-6.16,7.45A60.1,60.1,0,0,1,153.4,83Z"/><path class="cls-2" d="M153.28,138.5s-13-47-54-61c-42.21-14.41-93-7-93-7s22.5,16.5,54,49c24.9,25.69,62-1,62-1"/><path d="M153.28,138.5A97.11,97.11,0,0,0,149,128.22q-2.39-5-5.22-9.79a105.36,105.36,0,0,0-13.07-17.75,81.33,81.33,0,0,0-16.7-14,69.87,69.87,0,0,0-9.61-5.05c-1.67-.7-3.35-1.37-5.06-1.93s-3.49-1.11-5.24-1.62c-14.07-4.1-28.76-5.92-43.44-6.7q-11-.51-22.09-.1c-7.34.26-14.76.73-22,1.66l1.09-4.38c9.49,7.22,18.27,15,26.92,23s16.94,16.32,25,24.84c1,1.07,2,2.14,3,3.12a41.45,41.45,0,0,0,3.15,2.78A33.78,33.78,0,0,0,73,126.58,37.39,37.39,0,0,0,89.6,129.5,59.28,59.28,0,0,0,106.51,126a80.09,80.09,0,0,0,15.77-7.54,74.66,74.66,0,0,1-15.34,8.66,58.27,58.27,0,0,1-17.2,4.47,38.58,38.58,0,0,1-17.85-2.37,36.18,36.18,0,0,1-8-4.42A41.2,41.2,0,0,1,60.32,122c-1.12-1.07-2.15-2.09-3.18-3.12q-12.45-12.35-25.49-24Q25.13,89,18.42,83.35c-4.46-3.73-9-7.46-13.58-10.88L0,68.86l5.93-.78a247.29,247.29,0,0,1,45-1.58,200.94,200.94,0,0,1,22.4,2.41,163.24,163.24,0,0,1,22,5.13c1.8.59,3.58,1.18,5.37,1.83s3.56,1.41,5.29,2.2a74.22,74.22,0,0,1,10,5.61,82.26,82.26,0,0,1,16.78,15.24,106.11,106.11,0,0,1,20.55,39.58Z"/><path class="cls-2" d="M156.28,138.5s13-47,54-61c42.2-14.41,93-7,93-7s-22.5,16.5-54,49c-24.9,25.69-62-1-62-1"/><path d="M156.28,138.5a105.72,105.72,0,0,1,20.55-39.58A82,82,0,0,1,193.6,83.68a75.47,75.47,0,0,1,10-5.61c1.74-.79,3.5-1.55,5.29-2.2s3.57-1.24,5.37-1.83a163.59,163.59,0,0,1,22-5.13,200.86,200.86,0,0,1,22.41-2.41,247.29,247.29,0,0,1,45,1.58l5.93.78-4.84,3.61c-4.58,3.42-9.12,7.15-13.58,10.88s-8.89,7.55-13.23,11.44q-13,11.71-25.49,24c-1,1-2.06,2-3.19,3.12a41.06,41.06,0,0,1-3.55,2.89,36.41,36.41,0,0,1-8,4.42,38.58,38.58,0,0,1-17.85,2.37,58.19,58.19,0,0,1-17.2-4.47,74.4,74.4,0,0,1-15.34-8.66A79.82,79.82,0,0,0,203.05,126,59.21,59.21,0,0,0,220,129.5a37.41,37.41,0,0,0,16.59-2.92,33.78,33.78,0,0,0,7.18-4.33,41.45,41.45,0,0,0,3.15-2.78c1-1,2-2,3-3.12,8.1-8.52,16.39-16.86,25-24.84s17.44-15.76,26.93-23l1.09,4.38c-7.2-.93-14.62-1.4-22-1.66s-14.74-.24-22.09.1c-14.68.78-29.37,2.6-43.45,6.7-1.75.51-3.51,1-5.23,1.62s-3.4,1.23-5.06,1.93a68.74,68.74,0,0,0-9.61,5.05,81.06,81.06,0,0,0-16.7,14,105.36,105.36,0,0,0-13.07,17.75q-2.83,4.75-5.22,9.79A97.11,97.11,0,0,0,156.28,138.5Z"/></g></g></svg>